# Blender v2.92.0 OBJ File: 'badboy.blend'
# www.blender.org
o ì‹¤ë¦°ë”
v -0.216958 0.001796 0.268195
v 0.218705 0.001041 0.268195
v -0.216867 0.054288 0.262994
v 0.218796 0.053533 0.262994
v -0.216779 0.104763 0.247592
v 0.218883 0.104008 0.247592
v -0.216699 0.151282 0.222581
v 0.218964 0.150526 0.222581
v -0.216628 0.192055 0.188921
v 0.219035 0.191300 0.188921
v -0.216570 0.225517 0.147906
v 0.219093 0.224762 0.147906
v -0.216527 0.250382 0.101112
v 0.219136 0.249627 0.101112
v -0.216501 0.265693 0.050339
v 0.219162 0.264938 0.050339
v -0.216492 0.270863 -0.002464
v 0.219171 0.270108 -0.002464
v -0.216501 0.265693 -0.055267
v 0.219162 0.264938 -0.055267
v -0.216527 0.250382 -0.106041
v 0.219136 0.249627 -0.106041
v -0.216570 0.225517 -0.152835
v 0.219093 0.224762 -0.152835
v -0.216628 0.192055 -0.193850
v 0.219035 0.191300 -0.193850
v -0.216699 0.151282 -0.227510
v 0.218964 0.150526 -0.227510
v -0.216779 0.104763 -0.252521
v 0.218883 0.104008 -0.252521
v -0.216867 0.054288 -0.267923
v 0.218796 0.053533 -0.267923
v -0.216958 0.001796 -0.273124
v 0.218705 0.001041 -0.273124
v -0.217049 -0.050697 -0.267923
v 0.218614 -0.051452 -0.267923
v -0.217136 -0.101172 -0.252521
v 0.218526 -0.101927 -0.252521
v -0.217217 -0.147690 -0.227509
v 0.218446 -0.148445 -0.227509
v -0.217288 -0.188464 -0.193849
v 0.218375 -0.189219 -0.193849
v -0.217346 -0.221926 -0.152835
v 0.218317 -0.222681 -0.152835
v -0.217389 -0.246790 -0.106041
v 0.218274 -0.247545 -0.106041
v -0.217415 -0.262102 -0.055267
v 0.218247 -0.262857 -0.055267
v -0.217424 -0.267272 -0.002464
v 0.218238 -0.268027 -0.002464
v -0.217415 -0.262102 0.050339
v 0.218247 -0.262857 0.050339
v -0.217389 -0.246790 0.101113
v 0.218274 -0.247545 0.101113
v -0.217346 -0.221925 0.147906
v 0.218317 -0.222681 0.147906
v -0.217288 -0.188463 0.188921
v 0.218375 -0.189219 0.188921
v -0.217217 -0.147690 0.222581
v 0.218446 -0.148445 0.222581
v -0.217136 -0.101172 0.247592
v 0.218526 -0.101927 0.247592
v -0.217049 -0.050696 0.262994
v 0.218614 -0.051451 0.262994
v 0.218796 0.053533 0.262994
v 0.218705 0.001041 0.268195
v 0.218883 0.104008 0.247592
v 0.218964 0.150526 0.222581
v 0.219035 0.191300 0.188921
v 0.219093 0.224762 0.147906
v 0.219136 0.249627 0.101112
v 0.219162 0.264938 0.050339
v 0.219171 0.270108 -0.002464
v 0.219162 0.264938 -0.055267
v 0.219136 0.249627 -0.106041
v 0.219093 0.224762 -0.152835
v 0.219035 0.191300 -0.193850
v 0.218964 0.150526 -0.227510
v 0.218883 0.104008 -0.252521
v 0.218796 0.053533 -0.267923
v 0.218705 0.001041 -0.273124
v 0.218614 -0.051452 -0.267923
v 0.218526 -0.101927 -0.252521
v 0.218446 -0.148445 -0.227509
v 0.218375 -0.189219 -0.193849
v 0.218317 -0.222681 -0.152835
v 0.218274 -0.247545 -0.106041
v 0.218247 -0.262857 -0.055267
v 0.218238 -0.268027 -0.002464
v 0.218247 -0.262857 0.050339
v 0.218274 -0.247545 0.101113
v 0.218317 -0.222681 0.147906
v 0.218375 -0.189219 0.188921
v 0.218446 -0.148445 0.222581
v 0.218526 -0.101927 0.247592
v 0.218614 -0.051451 0.262994
v 0.219981 0.001038 0.268195
v 0.441973 0.000654 0.045115
v 0.441988 0.009383 0.044251
v 0.220072 0.053531 0.262994
v 0.442003 0.017832 0.041672
v 0.220159 0.104006 0.247592
v 0.442017 0.025712 0.037435
v 0.220240 0.150524 0.222581
v 0.442029 0.032726 0.031645
v 0.220311 0.191298 0.188921
v 0.442039 0.038576 0.024475
v 0.220369 0.224760 0.147906
v 0.442047 0.042987 0.016173
v 0.220412 0.249624 0.101112
v 0.442051 0.045734 0.007064
v 0.220438 0.264936 0.050339
v 0.442053 0.046667 -0.002465
v 0.220447 0.270106 -0.002464
v 0.442051 0.045734 -0.011993
v 0.220438 0.264936 -0.055267
v 0.442047 0.042987 -0.021102
v 0.220412 0.249624 -0.106041
v 0.442039 0.038576 -0.029404
v 0.220369 0.224760 -0.152835
v 0.442029 0.032726 -0.036574
v 0.220311 0.191298 -0.193850
v 0.442017 0.025712 -0.042364
v 0.220240 0.150524 -0.227510
v 0.442003 0.017832 -0.046601
v 0.220159 0.104006 -0.252521
v 0.441988 0.009383 -0.049179
v 0.220072 0.053531 -0.267923
v 0.441973 0.000653 -0.050044
v 0.219981 0.001038 -0.273124
v 0.441958 -0.008076 -0.049179
v 0.219890 -0.051454 -0.267923
v 0.441943 -0.016525 -0.046601
v 0.219802 -0.101929 -0.252521
v 0.441930 -0.024405 -0.042364
v 0.219722 -0.148448 -0.227509
v 0.441918 -0.031418 -0.036574
v 0.219651 -0.189221 -0.193849
v 0.441907 -0.037269 -0.029404
v 0.219593 -0.222683 -0.152835
v 0.441900 -0.041680 -0.021102
v 0.219550 -0.247548 -0.106041
v 0.441895 -0.044427 -0.011993
v 0.219523 -0.262859 -0.055267
v 0.441893 -0.045360 -0.002465
v 0.219514 -0.268029 -0.002464
v 0.441895 -0.044427 0.007064
v 0.219523 -0.262859 0.050339
v 0.441900 -0.041680 0.016173
v 0.219550 -0.247547 0.101113
v 0.441907 -0.037269 0.024475
v 0.219593 -0.222683 0.147906
v 0.441918 -0.031418 0.031645
v 0.219651 -0.189221 0.188921
v 0.441930 -0.024405 0.037435
v 0.219722 -0.148447 0.222581
v 0.441943 -0.016525 0.041672
v 0.219802 -0.101929 0.247592
v 0.441958 -0.008075 0.044251
v 0.219890 -0.051454 0.262994
vt 1.000000 1.000000
vt 0.968750 0.500000
vt 1.000000 0.500000
vt 0.968750 1.000000
vt 0.937500 0.500000
vt 0.937500 1.000000
vt 0.906250 0.500000
vt 0.906250 1.000000
vt 0.875000 0.500000
vt 0.875000 1.000000
vt 0.843750 0.500000
vt 0.843750 1.000000
vt 0.812500 0.500000
vt 0.812500 1.000000
vt 0.781250 0.500000
vt 0.781250 1.000000
vt 0.750000 0.500000
vt 0.750000 1.000000
vt 0.718750 0.500000
vt 0.718750 1.000000
vt 0.687500 0.500000
vt 0.687500 1.000000
vt 0.656250 0.500000
vt 0.656250 1.000000
vt 0.625000 0.500000
vt 0.625000 1.000000
vt 0.593750 0.500000
vt 0.593750 1.000000
vt 0.562500 0.500000
vt 0.562500 1.000000
vt 0.531250 0.500000
vt 0.531250 1.000000
vt 0.500000 0.500000
vt 0.500000 1.000000
vt 0.468750 0.500000
vt 0.468750 1.000000
vt 0.437500 0.500000
vt 0.437500 1.000000
vt 0.406250 0.500000
vt 0.406250 1.000000
vt 0.375000 0.500000
vt 0.375000 1.000000
vt 0.343750 0.500000
vt 0.343750 1.000000
vt 0.312500 0.500000
vt 0.312500 1.000000
vt 0.281250 0.500000
vt 0.281250 1.000000
vt 0.250000 0.500000
vt 0.250000 1.000000
vt 0.218750 0.500000
vt 0.218750 1.000000
vt 0.187500 0.500000
vt 0.187500 1.000000
vt 0.156250 0.500000
vt 0.156250 1.000000
vt 0.125000 0.500000
vt 0.125000 1.000000
vt 0.093750 0.500000
vt 0.093750 1.000000
vt 0.062500 0.500000
vt 0.028269 0.341844
vt 0.050447 0.383337
vt 0.050447 0.383337
vt 0.062500 1.000000
vt 0.031250 0.500000
vt 0.031250 1.000000
vt 0.000000 0.500000
vt 0.616663 0.449553
vt 0.658156 0.471731
vt 0.883337 0.449553
vt 0.250000 0.490000
vt 0.296822 0.485388
vt 0.250000 0.490000
vt 0.296822 0.485388
vt 0.341844 0.471731
vt 0.341844 0.471731
vt 0.383337 0.449553
vt 0.383337 0.449553
vt 0.419706 0.419706
vt 0.419706 0.419706
vt 0.449553 0.383337
vt 0.449553 0.383337
vt 0.471731 0.341844
vt 0.471731 0.341844
vt 0.485388 0.296822
vt 0.485388 0.296822
vt 0.490000 0.250000
vt 0.490000 0.250000
vt 0.485388 0.203178
vt 0.485388 0.203178
vt 0.471731 0.158156
vt 0.471731 0.158156
vt 0.449553 0.116663
vt 0.449553 0.116663
vt 0.419706 0.080294
vt 0.419706 0.080294
vt 0.383337 0.050447
vt 0.383337 0.050447
vt 0.341844 0.028269
vt 0.341844 0.028269
vt 0.296822 0.014612
vt 0.296822 0.014612
vt 0.250000 0.010000
vt 0.250000 0.010000
vt 0.203178 0.014612
vt 0.203178 0.014612
vt 0.158156 0.028269
vt 0.158156 0.028269
vt 0.116663 0.050447
vt 0.116663 0.050447
vt 0.080294 0.080294
vt 0.080294 0.080294
vt 0.050447 0.116663
vt 0.050447 0.116663
vt 0.028269 0.158156
vt 0.028269 0.158156
vt 0.014612 0.203179
vt 0.014612 0.203179
vt 0.010000 0.250000
vt 0.010000 0.250000
vt 0.014612 0.296822
vt 0.014612 0.296822
vt 0.028269 0.341844
vt 0.050447 0.383337
vt 0.080295 0.419706
vt 0.080295 0.419706
vt 0.116663 0.449553
vt 0.116663 0.449553
vt 0.158156 0.471731
vt 0.158156 0.471731
vt 0.203179 0.485389
vt 0.203179 0.485389
vt 0.250000 0.490000
vt 0.341844 0.028269
vt 0.080295 0.419706
vt 0.296822 0.014612
vt 0.278607 0.280246
vt 0.272351 0.285380
vt 0.221393 0.280246
vt 0.116663 0.449553
vt 0.250000 0.010000
vt 0.383337 0.449553
vt 0.158156 0.471731
vt 0.203178 0.014612
vt 0.419706 0.419706
vt 0.203179 0.485389
vt 0.158156 0.028269
vt 0.449553 0.383337
vt 0.116663 0.050447
vt 0.471731 0.341844
vt 0.341844 0.471731
vt 0.080294 0.080294
vt 0.485388 0.296822
vt 0.050447 0.116663
vt 0.490000 0.250000
vt 0.028269 0.158156
vt 0.485388 0.203178
vt 0.014612 0.203179
vt 0.471731 0.158156
vt 0.010000 0.250000
vt 0.449553 0.116663
vt 0.014612 0.296822
vt 0.419706 0.080294
vt 0.028269 0.341844
vt 0.383337 0.050447
vt 0.296822 0.485388
vt 0.250000 0.292190
vt 0.257786 0.291423
vt 0.265322 0.289137
vt 0.283825 0.273888
vt 0.287760 0.266526
vt 0.290210 0.258449
vt 0.291043 0.250000
vt 0.290210 0.241551
vt 0.287760 0.233474
vt 0.283826 0.226112
vt 0.278607 0.219754
vt 0.272351 0.214620
vt 0.265322 0.210863
vt 0.257786 0.208577
vt 0.250000 0.207810
vt 0.242214 0.208577
vt 0.234678 0.210863
vt 0.227649 0.214620
vt 0.221393 0.219754
vt 0.216174 0.226112
vt 0.212240 0.233474
vt 0.209790 0.241551
vt 0.208957 0.250000
vt 0.209790 0.258449
vt 0.212240 0.266526
vt 0.216175 0.273888
vt 0.227649 0.285380
vt 0.234678 0.289137
vt 0.242214 0.291423
vt 0.000000 1.000000
vt 0.703179 0.485389
vt 0.750000 0.490000
vt 0.796822 0.485388
vt 0.841844 0.471731
vt 0.919706 0.419706
vt 0.580295 0.419706
vt 0.949553 0.383337
vt 0.550447 0.383337
vt 0.971731 0.341844
vt 0.985388 0.296822
vt 0.528269 0.341844
vt 0.990000 0.250000
vt 0.510000 0.250000
vt 0.985388 0.203178
vt 0.514612 0.203179
vt 0.971731 0.158156
vt 0.949553 0.116663
vt 0.528269 0.158156
vt 0.919706 0.080294
vt 0.580294 0.080294
vt 0.883337 0.050447
vt 0.616663 0.050447
vt 0.841844 0.028269
vt 0.796822 0.014612
vt 0.658156 0.028269
vt 0.750000 0.010000
vt 0.703178 0.014612
vt 0.550447 0.116663
vt 0.514612 0.296822
vn 0.0002 0.0986 0.9951
vn 0.0005 0.2919 0.9565
vn 0.0008 0.4736 0.8808
vn 0.0011 0.6366 0.7712
vn 0.0013 0.7748 0.6322
vn 0.0015 0.8831 0.4692
vn 0.0017 0.9574 0.2887
vn 0.0017 0.9952 0.0974
vn 0.0017 0.9952 -0.0974
vn 0.0017 0.9574 -0.2887
vn 0.0015 0.8831 -0.4692
vn 0.0013 0.7748 -0.6322
vn 0.0011 0.6366 -0.7712
vn 0.0008 0.4736 -0.8808
vn 0.0005 0.2919 -0.9565
vn 0.0002 0.0986 -0.9951
vn -0.0002 -0.0986 -0.9951
vn -0.0005 -0.2919 -0.9565
vn -0.0008 -0.4736 -0.8808
vn -0.0011 -0.6366 -0.7712
vn -0.0013 -0.7748 -0.6322
vn -0.0015 -0.8831 -0.4692
vn -0.0017 -0.9574 -0.2887
vn -0.0017 -0.9952 -0.0974
vn -0.0017 -0.9952 0.0974
vn -0.0017 -0.9574 0.2887
vn -0.0015 -0.8831 0.4692
vn -0.0013 -0.7748 0.6322
vn -0.0011 -0.6366 0.7712
vn -0.0008 -0.4736 0.8808
vn -0.0005 -0.2919 0.9565
vn -0.0002 -0.0986 0.9951
vn -1.0000 0.0017 0.0000
vn 0.0000 0.0000 1.0000
vn 1.0000 -0.0017 0.0000
vn 0.7072 0.0685 0.7037
vn 0.7075 0.2051 0.6763
vn 0.7077 0.3336 0.6228
vn 0.7079 0.4489 0.5453
vn 0.7081 0.5467 0.4470
vn 0.7082 0.6232 0.3318
vn 0.7083 0.6758 0.2042
vn 0.7083 0.7025 0.0689
vn 0.7083 0.7025 -0.0689
vn 0.7083 0.6758 -0.2042
vn 0.7082 0.6232 -0.3318
vn 0.7081 0.5467 -0.4470
vn 0.7079 0.4489 -0.5453
vn 0.7077 0.3336 -0.6228
vn 0.7075 0.2051 -0.6763
vn 0.7072 0.0685 -0.7037
vn 0.7070 -0.0709 -0.7037
vn 0.7067 -0.2076 -0.6763
vn 0.7065 -0.3361 -0.6228
vn 0.7063 -0.4514 -0.5453
vn 0.7062 -0.5491 -0.4470
vn 0.7060 -0.6256 -0.3318
vn 0.7059 -0.6782 -0.2042
vn 0.7059 -0.7050 -0.0689
vn 0.7059 -0.7050 0.0689
vn 0.7059 -0.6782 0.2042
vn 0.7060 -0.6257 0.3318
vn 0.7062 -0.5491 0.4470
vn 0.7063 -0.4514 0.5453
vn 0.7065 -0.3361 0.6228
vn 0.7067 -0.2076 0.6763
vn 0.7070 -0.0709 0.7037
vn -0.0014 -0.7748 0.6321
vn 0.0014 0.7748 0.6321
vn -0.0013 -0.7748 -0.6321
vn 0.0013 0.7748 -0.6321
vn 0.7060 -0.6257 -0.3318
s off
f 66/1/1 3/2/1 1/3/1
f 65/4/2 5/5/2 3/2/2
f 67/6/3 7/7/3 5/5/3
f 68/8/4 9/9/4 7/7/4
f 69/10/5 11/11/5 9/9/5
f 70/12/6 13/13/6 11/11/6
f 71/14/7 15/15/7 13/13/7
f 72/16/8 17/17/8 15/15/8
f 73/18/9 19/19/9 17/17/9
f 74/20/10 21/21/10 19/19/10
f 75/22/11 23/23/11 21/21/11
f 76/24/12 25/25/12 23/23/12
f 77/26/13 27/27/13 25/25/13
f 78/28/14 29/29/14 27/27/14
f 79/30/15 31/31/15 29/29/15
f 80/32/16 33/33/16 31/31/16
f 81/34/17 35/35/17 33/33/17
f 82/36/18 37/37/18 35/35/18
f 83/38/19 39/39/19 37/37/19
f 84/40/20 41/41/20 39/39/20
f 85/42/21 43/43/21 41/41/21
f 86/44/22 45/45/22 43/43/22
f 87/46/23 47/47/23 45/45/23
f 88/48/24 49/49/24 47/47/24
f 89/50/25 51/51/25 49/49/25
f 90/52/26 53/53/26 51/51/26
f 91/54/27 55/55/27 53/53/27
f 92/56/28 57/57/28 55/55/28
f 93/58/29 59/59/29 57/57/29
f 94/60/30 61/61/30 59/59/30
f 54/62/27 152/63/27 56/64/27
f 95/65/31 63/66/31 61/61/31
f 96/67/32 1/68/32 63/66/32
f 59/69/33 61/70/33 7/71/33
f 2/72/34 65/73/34 66/74/34
f 4/75/34 67/76/34 65/73/34
f 6/77/34 68/78/34 67/76/34
f 8/79/34 69/80/34 68/78/34
f 10/81/34 70/82/34 69/80/34
f 12/83/34 71/84/34 70/82/34
f 14/85/34 72/86/34 71/84/34
f 16/87/34 73/88/34 72/86/34
f 18/89/34 74/90/34 73/88/34
f 20/91/34 75/92/34 74/90/34
f 22/93/34 76/94/34 75/92/34
f 24/95/34 77/96/34 76/94/34
f 26/97/34 78/98/34 77/96/34
f 28/99/34 79/100/34 78/98/34
f 30/101/34 80/102/34 79/100/34
f 32/103/34 81/104/34 80/102/34
f 34/105/34 82/106/34 81/104/34
f 36/107/34 83/108/34 82/106/34
f 38/109/34 84/110/34 83/108/34
f 40/111/34 85/112/34 84/110/34
f 42/113/34 86/114/34 85/112/34
f 44/115/34 87/116/34 86/114/34
f 46/117/34 88/118/34 87/116/34
f 48/119/34 89/120/34 88/118/34
f 50/121/34 90/122/34 89/120/34
f 52/123/34 91/124/34 90/122/34
f 54/62/34 92/125/34 91/124/34
f 56/64/34 93/126/34 92/125/34
f 58/127/34 94/128/34 93/126/34
f 60/129/34 95/130/34 94/128/34
f 62/131/34 96/132/34 95/130/34
f 64/133/34 66/74/34 96/132/34
f 64/133/32 97/134/32 2/72/32
f 28/99/14 126/135/14 30/101/14
f 56/64/28 154/136/28 58/127/28
f 30/101/15 128/137/15 32/103/15
f 105/138/35 103/139/35 153/140/35
f 58/127/29 156/141/29 60/129/29
f 32/103/16 130/142/16 34/105/16
f 6/77/3 104/143/3 8/79/3
f 60/129/30 158/144/30 62/131/30
f 34/105/17 132/145/17 36/107/17
f 8/79/4 106/146/4 10/81/4
f 62/131/31 160/147/31 64/133/31
f 36/107/18 134/148/18 38/109/18
f 10/81/5 108/149/5 12/83/5
f 38/109/19 136/150/19 40/111/19
f 12/83/6 110/151/6 14/85/6
f 4/75/2 102/152/2 6/77/2
f 40/111/20 138/153/20 42/113/20
f 14/85/7 112/154/7 16/87/7
f 42/113/21 140/155/21 44/115/21
f 16/87/8 114/156/8 18/89/8
f 44/115/22 142/157/22 46/117/22
f 18/89/9 116/158/9 20/91/9
f 46/117/23 144/159/23 48/119/23
f 20/91/10 118/160/10 22/93/10
f 48/119/24 146/161/24 50/121/24
f 22/93/11 120/162/11 24/95/11
f 50/121/25 148/163/25 52/123/25
f 24/95/12 122/164/12 26/97/12
f 52/123/26 150/165/26 54/62/26
f 26/97/13 124/166/13 28/99/13
f 100/167/36 98/168/36 99/169/36
f 102/152/37 99/169/37 101/170/37
f 104/143/38 101/170/38 103/139/38
f 106/146/39 103/139/39 105/138/39
f 108/149/40 105/138/40 107/171/40
f 110/151/41 107/171/41 109/172/41
f 112/154/42 109/172/42 111/173/42
f 114/156/43 111/173/43 113/174/43
f 114/156/44 115/175/44 116/158/44
f 116/158/45 117/176/45 118/160/45
f 118/160/46 119/177/46 120/162/46
f 120/162/47 121/178/47 122/164/47
f 122/164/48 123/179/48 124/166/48
f 124/166/49 125/180/49 126/135/49
f 126/135/50 127/181/50 128/137/50
f 128/137/51 129/182/51 130/142/51
f 132/145/52 129/182/52 131/183/52
f 134/148/53 131/183/53 133/184/53
f 136/150/54 133/184/54 135/185/54
f 138/153/55 135/185/55 137/186/55
f 140/155/56 137/186/56 139/187/56
f 142/157/57 139/187/57 141/188/57
f 144/159/58 141/188/58 143/189/58
f 146/161/59 143/189/59 145/190/59
f 146/161/60 147/191/60 148/163/60
f 148/163/61 149/192/61 150/165/61
f 150/165/62 151/193/62 152/63/62
f 152/63/63 153/140/63 154/136/63
f 154/136/64 155/194/64 156/141/64
f 156/141/65 157/195/65 158/144/65
f 158/144/66 159/196/66 160/147/66
f 160/147/67 98/168/67 97/134/67
f 2/72/1 100/167/1 4/75/1
f 66/1/1 65/4/1 3/2/1
f 65/4/2 67/6/2 5/5/2
f 67/6/3 68/8/3 7/7/3
f 68/8/4 69/10/4 9/9/4
f 69/10/5 70/12/5 11/11/5
f 70/12/6 71/14/6 13/13/6
f 71/14/7 72/16/7 15/15/7
f 72/16/8 73/18/8 17/17/8
f 73/18/9 74/20/9 19/19/9
f 74/20/10 75/22/10 21/21/10
f 75/22/11 76/24/11 23/23/11
f 76/24/12 77/26/12 25/25/12
f 77/26/13 78/28/13 27/27/13
f 78/28/14 79/30/14 29/29/14
f 79/30/15 80/32/15 31/31/15
f 80/32/16 81/34/16 33/33/16
f 81/34/17 82/36/17 35/35/17
f 82/36/18 83/38/18 37/37/18
f 83/38/19 84/40/19 39/39/19
f 84/40/20 85/42/20 41/41/20
f 85/42/21 86/44/21 43/43/21
f 86/44/22 87/46/22 45/45/22
f 87/46/23 88/48/23 47/47/23
f 88/48/24 89/50/24 49/49/24
f 89/50/25 90/52/25 51/51/25
f 90/52/26 91/54/26 53/53/26
f 91/54/27 92/56/27 55/55/27
f 92/56/28 93/58/28 57/57/28
f 93/58/29 94/60/29 59/59/29
f 94/60/30 95/65/30 61/61/30
f 54/62/27 150/165/27 152/63/27
f 95/65/31 96/67/31 63/66/31
f 96/67/32 66/197/32 1/68/32
f 63/198/33 1/199/33 3/200/33
f 3/200/33 5/201/33 63/198/33
f 5/201/33 7/71/33 61/70/33
f 63/198/33 5/201/33 61/70/33
f 7/71/33 9/202/33 57/203/33
f 9/202/33 11/204/33 55/205/33
f 11/204/33 13/206/33 55/205/33
f 13/206/33 15/207/33 53/208/33
f 55/205/33 13/206/33 53/208/33
f 15/207/33 17/209/33 49/210/33
f 17/209/33 19/211/33 47/212/33
f 19/211/33 21/213/33 47/212/33
f 21/213/33 23/214/33 45/215/33
f 47/212/33 21/213/33 45/215/33
f 23/214/33 25/216/33 41/217/33
f 25/216/33 27/218/33 39/219/33
f 27/218/33 29/220/33 39/219/33
f 29/220/33 31/221/33 37/222/33
f 39/219/33 29/220/33 37/222/33
f 31/221/33 33/223/33 35/224/33
f 35/224/33 37/222/33 31/221/33
f 39/219/33 41/217/33 25/216/33
f 41/217/33 43/225/33 23/214/33
f 43/225/33 45/215/33 23/214/33
f 47/212/33 49/210/33 17/209/33
f 49/210/33 51/226/33 15/207/33
f 51/226/33 53/208/33 15/207/33
f 55/205/33 57/203/33 9/202/33
f 57/203/33 59/69/33 7/71/33
f 2/72/34 4/75/34 65/73/34
f 4/75/34 6/77/34 67/76/34
f 6/77/34 8/79/34 68/78/34
f 8/79/34 10/81/34 69/80/34
f 10/81/34 12/83/34 70/82/34
f 12/83/34 14/85/34 71/84/34
f 14/85/34 16/87/34 72/86/34
f 16/87/34 18/89/34 73/88/34
f 18/89/34 20/91/34 74/90/34
f 20/91/34 22/93/34 75/92/34
f 22/93/34 24/95/34 76/94/34
f 24/95/34 26/97/34 77/96/34
f 26/97/34 28/99/34 78/98/34
f 28/99/34 30/101/34 79/100/34
f 30/101/34 32/103/34 80/102/34
f 32/103/34 34/105/34 81/104/34
f 34/105/34 36/107/34 82/106/34
f 36/107/34 38/109/34 83/108/34
f 38/109/34 40/111/34 84/110/34
f 40/111/34 42/113/34 85/112/34
f 42/113/34 44/115/34 86/114/34
f 44/115/34 46/117/34 87/116/34
f 46/117/34 48/119/34 88/118/34
f 48/119/34 50/121/34 89/120/34
f 50/121/34 52/123/34 90/122/34
f 52/123/34 54/62/34 91/124/34
f 54/62/34 56/64/34 92/125/34
f 56/64/34 58/127/34 93/126/34
f 58/127/34 60/129/34 94/128/34
f 60/129/34 62/131/34 95/130/34
f 62/131/34 64/133/34 96/132/34
f 64/133/34 2/72/34 66/74/34
f 64/133/32 160/147/32 97/134/32
f 28/99/14 124/166/14 126/135/14
f 56/64/68 152/63/68 154/136/68
f 30/101/15 126/135/15 128/137/15
f 101/170/35 99/169/35 157/195/35
f 99/169/35 98/168/35 159/196/35
f 157/195/35 99/169/35 159/196/35
f 157/195/35 155/194/35 101/170/35
f 155/194/35 153/140/35 103/139/35
f 101/170/35 155/194/35 103/139/35
f 153/140/35 151/193/35 105/138/35
f 151/193/35 149/192/35 107/171/35
f 105/138/35 151/193/35 107/171/35
f 149/192/35 147/191/35 111/173/35
f 147/191/35 145/190/35 113/174/35
f 145/190/35 143/189/35 115/175/35
f 143/189/35 141/188/35 117/176/35
f 141/188/35 139/187/35 117/176/35
f 139/187/35 137/186/35 119/177/35
f 117/176/35 139/187/35 119/177/35
f 137/186/35 135/185/35 121/178/35
f 135/185/35 133/184/35 123/179/35
f 121/178/35 135/185/35 123/179/35
f 133/184/35 131/183/35 127/181/35
f 131/183/35 129/182/35 127/181/35
f 127/181/35 125/180/35 133/184/35
f 125/180/35 123/179/35 133/184/35
f 121/178/35 119/177/35 137/186/35
f 117/176/35 115/175/35 143/189/35
f 115/175/35 113/174/35 145/190/35
f 113/174/35 111/173/35 147/191/35
f 111/173/35 109/172/35 149/192/35
f 109/172/35 107/171/35 149/192/35
f 58/127/29 154/136/29 156/141/29
f 32/103/16 128/137/16 130/142/16
f 6/77/3 102/152/3 104/143/3
f 60/129/30 156/141/30 158/144/30
f 34/105/17 130/142/17 132/145/17
f 8/79/4 104/143/4 106/146/4
f 62/131/31 158/144/31 160/147/31
f 36/107/18 132/145/18 134/148/18
f 10/81/69 106/146/69 108/149/69
f 38/109/19 134/148/19 136/150/19
f 12/83/6 108/149/6 110/151/6
f 4/75/2 100/167/2 102/152/2
f 40/111/20 136/150/20 138/153/20
f 14/85/7 110/151/7 112/154/7
f 42/113/70 138/153/70 140/155/70
f 16/87/8 112/154/8 114/156/8
f 44/115/22 140/155/22 142/157/22
f 18/89/9 114/156/9 116/158/9
f 46/117/23 142/157/23 144/159/23
f 20/91/10 116/158/10 118/160/10
f 48/119/24 144/159/24 146/161/24
f 22/93/11 118/160/11 120/162/11
f 50/121/25 146/161/25 148/163/25
f 24/95/71 120/162/71 122/164/71
f 52/123/26 148/163/26 150/165/26
f 26/97/13 122/164/13 124/166/13
f 100/167/36 97/134/36 98/168/36
f 102/152/37 100/167/37 99/169/37
f 104/143/38 102/152/38 101/170/38
f 106/146/39 104/143/39 103/139/39
f 108/149/40 106/146/40 105/138/40
f 110/151/41 108/149/41 107/171/41
f 112/154/42 110/151/42 109/172/42
f 114/156/43 112/154/43 111/173/43
f 114/156/44 113/174/44 115/175/44
f 116/158/45 115/175/45 117/176/45
f 118/160/46 117/176/46 119/177/46
f 120/162/47 119/177/47 121/178/47
f 122/164/48 121/178/48 123/179/48
f 124/166/49 123/179/49 125/180/49
f 126/135/50 125/180/50 127/181/50
f 128/137/51 127/181/51 129/182/51
f 132/145/52 130/142/52 129/182/52
f 134/148/53 132/145/53 131/183/53
f 136/150/54 134/148/54 133/184/54
f 138/153/55 136/150/55 135/185/55
f 140/155/56 138/153/56 137/186/56
f 142/157/72 140/155/72 139/187/72
f 144/159/58 142/157/58 141/188/58
f 146/161/59 144/159/59 143/189/59
f 146/161/60 145/190/60 147/191/60
f 148/163/61 147/191/61 149/192/61
f 150/165/62 149/192/62 151/193/62
f 152/63/63 151/193/63 153/140/63
f 154/136/64 153/140/64 155/194/64
f 156/141/65 155/194/65 157/195/65
f 158/144/66 157/195/66 159/196/66
f 160/147/67 159/196/67 98/168/67
f 2/72/1 97/134/1 100/167/1
